<svg width="0" height="0" class="hidden">
  <symbol xmlns="http://www.w3.org/2000/svg" fill="currentColor" viewBox="0 0 16 16" id="star-empty">
    <path fill-rule="evenodd" clip-rule="evenodd" d="M9.595 6.252L8 1 6.405 6.252H1l4.373 3.4L3.75 15 8 11.695 12.25 15l-1.623-5.348L15 6.252H9.595zm-7.247.47H6.72L8 2.507 6.72 6.722H2.348zm3.537 2.75l-1.307 4.305 1.307-4.305zm7.767-2.75H9.28h4.372zm-8.75.9h2.366L8 5.214l.732 2.41h2.367l-1.915 1.49.731 2.409L8 10.032l-1.915 1.49.731-2.41-1.915-1.49z"></path>
  </symbol>
  <symbol xmlns="http://www.w3.org/2000/svg" fill="currentColor" viewBox="0 0 16 16" id="star-full">
    <path fill-rule="evenodd" clip-rule="evenodd" d="M9.595 6.252L8 1 6.405 6.252H1l4.373 3.4L3.75 15 8 11.695 12.25 15l-1.623-5.348L15 6.252H9.595z"></path>
  </symbol>
  <symbol xmlns="http://www.w3.org/2000/svg" fill="currentColor" viewBox="0 0 24 24" id="search">
    <path d="M15.25 0a8.25 8.25 0 0 0-6.18 13.72L1 22.88l1.12 1 8.05-9.12A8.251 8.251 0 1 0 15.25.01V0zm0 15a6.75 6.75 0 1 1 0-13.5 6.75 6.75 0 0 1 0 13.5z"></path>
  </symbol>
  <symbol xmlns="http://www.w3.org/2000/svg" fill="currentColor" viewBox="0 0 16 16" id="close">
    <path fill-rule="evenodd" clip-rule="evenodd" d="M8 8.707l3.646 3.647.708-.707L8.707 8l3.647-3.646-.707-.708L8 7.293 4.354 3.646l-.707.708L7.293 8l-3.646 3.646.707.708L8 8.707z"></path>
  </symbol>
</svg>